<svg xmlns="http://www.w3.org/2000/svg" width="20" height="20" viewBox="0 0 20 20">
    <g fill="none" fill-rule="evenodd">
        <g fill="#8D8D8D">
            <g>
                <g>
                    <g>
                        <path d="M2.206 14.21v3.592h3.617V19h-4.18c-.323 0-.59-.238-.636-.548L1 18.357V14.21h1.206zM19 14.174v4.148c0 .355-.288.643-.643.643h-4.18v-1.198h3.617v-3.593H19zM7.861 11.578c.279 0 .51.203.554.47l.007.09v3.087c0 .279-.203.51-.47.553l-.09.008H4.774c-.279 0-.51-.204-.553-.47l-.008-.091v-3.086c0-.279.204-.51.47-.554l.091-.007h3.086zm2.665-7.364v5.26h5.26v1.052h-5.26v5.26H9.474v-5.26h-5.26V9.474h5.26v-5.26h1.052zm5.26 7.364v1.052H12.63v3.156h-1.052v-3.647c0-.279.203-.51.47-.554l.09-.007h3.648zm-1.052 1.885v2.323h-1.052v-2.323h1.052zM7.37 12.63H5.266v2.104H7.37V12.63zm.491-8.416c.279 0 .51.204.554.47l.007.091v3.086c0 .279-.203.51-.47.554l-.09.007H4.774c-.279 0-.51-.203-.553-.47l-.008-.09V4.774c0-.279.204-.51.47-.553l.091-.008h3.086zm7.364 0c.279 0 .51.204.553.47l.008.091v3.086c0 .279-.204.51-.47.554l-.091.007h-3.086c-.279 0-.51-.203-.554-.47l-.007-.09V4.774c0-.279.203-.51.47-.553l.09-.008h3.087zM7.37 5.266H5.266V7.37H7.37V5.266zm7.364 0H12.63V7.37h2.104V5.266zM5.823 1.034v1.198H2.206v3.593H1V1.677c0-.323.238-.59.548-.636l.095-.007h4.18zM18.357 1c.355 0 .643.288.643.643V5.79h-1.206V2.198h-3.617V1h4.18z" transform="translate(-670 -664) translate(540 88) translate(130 575) translate(0 1)"/>
                    </g>
                </g>
            </g>
        </g>
    </g>
</svg>
